<svg width="50" height="50" viewBox="0 0 50 50" fill="none" xmlns="http://www.w3.org/2000/svg">
<path fill-rule="evenodd" clip-rule="evenodd" d="M21.5 5C20.9477 5 20.5 5.44772 20.5 6V8H20C18.6193 8 17.5 9.11929 17.5 10.5C17.5 11.8807 18.6193 13 20 13H30C31.3807 13 32.5 11.8807 32.5 10.5C32.5 9.11929 31.3807 8 30 8H29.5V6C29.5 5.44772 29.0523 5 28.5 5H21.5Z" fill="#FF6D1C"/>
<path fill-rule="evenodd" clip-rule="evenodd" d="M15.5275 10C15.5093 10.1642 15.5 10.331 15.5 10.5C15.5 12.9853 17.5147 15 20 15H30C32.4853 15 34.5 12.9853 34.5 10.5C34.5 10.331 34.4907 10.1642 34.4725 10H37.5C39.1569 10 40.5 11.3431 40.5 13V42C40.5 43.6569 39.1569 45 37.5 45H12.5C10.8431 45 9.5 43.6569 9.5 42V13C9.5 11.3431 10.8431 10 12.5 10H15.5275Z" fill="#FF6D1C"/>
<circle cx="15" cy="22.5" r="1.5" fill="white"/>
<circle cx="15" cy="30.5" r="1.5" fill="white"/>
<circle cx="15" cy="38.5" r="1.5" fill="white"/>
<rect x="18.5" y="21" width="13" height="3" rx="1.5" fill="white"/>
<rect x="18.5" y="29" width="8" height="3" rx="1.5" fill="white"/>
<path d="M33.7286 20C33.7286 19.4477 34.1764 19 34.7286 19H36.7286C37.2809 19 37.7286 19.4477 37.7286 20V35C37.7286 35.5523 37.2809 36 36.7286 36H34.7286C34.1764 36 33.7286 35.5523 33.7286 35V20Z" fill="white"/>
<path d="M33.6254 36.9885C33.5665 36.8562 33.6633 36.707 33.8081 36.707H37.6492C37.794 36.707 37.8908 36.8562 37.8318 36.9885L36.642 39.6579C36.2897 40.4484 35.1676 40.4484 34.8153 39.6579L33.6254 36.9885Z" fill="white"/>
</svg>
