<svg width="50" height="50" viewBox="0 0 50 50" fill="none" xmlns="http://www.w3.org/2000/svg">
<path d="M14.8163 7.98446C14.8163 6.57107 15.9621 5.42529 17.3755 5.42529H36.9957C38.4091 5.42529 39.5549 6.57107 39.5549 7.98446V38.6945C39.5549 40.1078 38.4091 41.2536 36.9957 41.2536H17.3755C15.9621 41.2536 14.8163 40.1078 14.8163 38.6945V7.98446Z" fill="#FF6D1C"/>
<path fill-rule="evenodd" clip-rule="evenodd" d="M31.2727 7.31629L12.7034 12.351C12.2487 12.4743 11.9801 12.9428 12.1033 13.3976L19.8823 42.0886C20.0056 42.5433 20.4742 42.812 20.9289 42.6887L39.4982 37.654C39.9529 37.5307 40.2216 37.0621 40.0983 36.6074L32.3193 7.91639C32.196 7.46168 31.7274 7.19301 31.2727 7.31629ZM12.257 10.7043C10.8928 11.0742 10.0868 12.4799 10.4567 13.844L18.2357 42.535C18.6055 43.8992 20.0112 44.7052 21.3754 44.3353L39.9447 39.3006C41.3088 38.9308 42.1148 37.5251 41.745 36.161L33.966 7.46993C33.5961 6.1058 32.1904 5.29977 30.8263 5.66963L12.257 10.7043Z" fill="#FF6D1C"/>
<path d="M7.43371 17.929C6.80043 16.6606 7.31887 15.1191 8.5899 14.4913L11.2438 13.5294L15.9356 28.8844L37.2746 34.6289C38.1319 36.3117 36.9336 38.3115 35.0455 38.3493L19.4199 38.662C18.4318 38.6818 17.5206 38.1308 17.0791 37.2466L7.43371 17.929Z" fill="#FF6D1C"/>
<rect x="18.0684" y="15.6621" width="18.7672" height="2.55917" rx="1.27958" fill="white"/>
<rect x="18.0684" y="19.9272" width="18.7672" height="2.55917" rx="1.27958" fill="white"/>
<rect x="18.0684" y="24.1924" width="18.7672" height="2.55917" rx="1.27958" fill="white"/>
<rect x="18.0684" y="28.458" width="18.7672" height="2.55917" rx="1.27958" fill="white"/>
</svg>
