<svg width="50" height="50" viewBox="0 0 50 50" fill="none" xmlns="http://www.w3.org/2000/svg">
<path d="M12.0411 33.5502V23.1002C12.0411 22.7202 13.1811 22.7202 15.0811 23.8602C16.9811 25.0002 16.6011 28.4202 16.6011 29.5602C16.6011 30.7002 18.5011 35.2602 21.9211 35.2602C25.3411 35.2602 25.3411 31.4602 25.3411 28.8002C25.3411 27.6586 24.8308 26.6118 24.2208 25.7888C23.3719 24.6436 21.9148 24.2402 20.4892 24.2402H17.4508C17.163 24.2402 16.905 24.0733 16.7459 23.8334C16.0041 22.7149 14.8225 22.219 13.9351 22.0421C13.5235 21.96 13.164 21.6121 13.2816 21.2092C13.6328 20.0061 14.8186 19.6802 15.4611 19.6802H22.3011C23.8211 19.6802 25.4678 20.6935 26.1011 21.2002C27.8745 22.7202 31.5731 26.0642 32.1811 27.2802C32.7891 28.4962 32.9411 30.3202 32.9411 31.0802V33.5502C32.9411 39.3216 28.2625 44.0002 22.4911 44.0002C16.7198 44.0002 12.0411 39.3216 12.0411 33.5502Z" fill="#FF6D1C"/>
<path d="M27.6211 8.28C27.6211 7.02079 28.6419 6 29.9011 6C31.1603 6 32.1811 7.02079 32.1811 8.28V25L27.6211 17.02L27.6211 8.28Z" fill="#FF6D1C"/>
<path d="M33.1092 13.8687C33.0716 12.6982 34.0689 11.7599 35.235 11.8687C36.4251 11.9797 37.2347 13.1275 36.9401 14.2859L33.5506 27.6101L33.1092 13.8687Z" fill="#FF6D1C"/>
<path d="M17.4181 11.8506C16.7572 10.7784 17.0914 9.37348 18.1642 8.71368C19.2363 8.05433 20.6399 8.38891 21.2992 9.46097L29.347 22.5462C29.347 22.5462 27.1924 20.092 25.3412 19.3C23.9498 18.7047 21.5412 18.54 21.5412 18.54L17.4181 11.8506Z" fill="#FF6D1C"/>
</svg>
