<svg width="50" height="50" viewBox="0 0 50 50" fill="none" xmlns="http://www.w3.org/2000/svg">
<path d="M33.3257 3H16.8134C14.535 3 12.6884 4.84663 12.6884 7.125V42.875C12.6884 45.1534 14.535 47 16.8134 47H33.3257C35.6041 47 37.4507 45.1534 37.4507 42.875V7.125C37.4507 4.84663 35.6041 3 33.3257 3Z" fill="#FF6D1C"/>
<rect x="20.6084" y="4.75977" width="8.8" height="1.76" rx="0.88" fill="white"/>
<rect x="23.2483" y="40.8398" width="3.52" height="3.52" rx="1.76" fill="white"/>
<path d="M20.9479 16.8473C22.2346 15.0639 23.7258 13.9747 25.4215 13.5795C27.1172 13.1844 28.9086 13.5839 30.7957 14.7781C32.5215 15.8703 33.6177 17.2077 34.0843 18.7905C34.5611 20.3572 34.33 21.8825 33.391 23.3663C32.799 24.3018 32.0467 24.9552 31.1341 25.3264C30.2377 25.7078 29.1652 25.9213 27.9166 25.9669C26.9007 26.0017 26.1654 26.1463 25.7108 26.4007C25.2663 26.6389 24.7787 27.1774 24.248 28.0161L21.0303 25.9799C21.7447 24.8508 22.3795 24.0441 22.9346 23.5596C23.516 23.0692 24.3767 22.7442 25.5167 22.5847C25.6645 22.5653 25.9682 22.5316 26.4277 22.4836C26.8873 22.4356 27.2224 22.3879 27.4331 22.3405C27.6438 22.2931 27.9174 22.2178 28.2538 22.1144C28.5902 22.0111 28.8753 21.864 29.1091 21.6731C29.3428 21.4822 29.5516 21.2416 29.7353 20.9513C30.1027 20.3706 30.2052 19.7804 30.0427 19.1806C29.8962 18.591 29.5085 18.0972 28.8795 17.6991C27.2666 16.6784 25.8002 17.1396 24.4802 19.0826L20.9479 16.8473ZM23.556 29.645L21.2135 33.3467L17.4635 30.9736L19.806 27.2719L23.556 29.645Z" fill="white"/>
</svg>
