<?xml version="1.0" encoding="UTF-8"?>
<svg id="uuid-bef29c71-ac18-4a5b-88cb-5f4977aa9983" data-name="Слой 1" xmlns="http://www.w3.org/2000/svg" viewBox="0 0 413.87 131.56">
  <defs>
    <style>
      .uuid-8788b5f9-b071-4949-ba74-992eeafcfe9f {
        fill: #201600;
      }

      .uuid-cf155c50-3e90-4fb6-a166-204e2ac1cfe2 {
        fill: #000306;
      }

      .uuid-ce9bda87-da5d-44e2-93c5-532b99a80887 {
        fill: none;
        stroke: #000306;
        stroke-miterlimit: 10;
        stroke-width: 5px;
      }

      .uuid-7601a955-dea9-44b4-baaf-567102d17fe3 {
        fill: #d96e43;
      }
    </style>
  </defs>
  <g>
    <path class="uuid-8788b5f9-b071-4949-ba74-992eeafcfe9f" d="m133.06,2.77c2.95,0,5.52.39,7.69,1.17,2.17.78,3.99,1.89,5.45,3.32,1.46,1.44,2.57,3.17,3.35,5.21.78,2.04,1.25,4.31,1.41,6.82.16,2.95.16,5.91,0,8.86-.16,2.51-.63,4.79-1.41,6.82-.78,2.04-1.89,3.77-3.32,5.21-1.44,1.44-3.22,2.54-5.36,3.32-2.13.78-4.64,1.17-7.51,1.17h-15.08c-.44,0-.82-.16-1.14-.48-.32-.32-.48-.7-.48-1.14V4.39c0-.44.16-.82.48-1.14.32-.32.7-.48,1.14-.48h14.79Zm9.82,16.52c-.08-1.28-.33-2.46-.75-3.56-.42-1.1-1.04-2.05-1.86-2.87-.82-.82-1.85-1.46-3.08-1.92-1.24-.46-2.71-.69-4.43-.69h-8.02v26.94h8.32c1.64,0,3.05-.23,4.25-.69,1.2-.46,2.19-1.09,2.99-1.89s1.41-1.76,1.83-2.87c.42-1.12.67-2.31.75-3.59.16-2.95.16-5.91,0-8.86Z"/>
    <path class="uuid-8788b5f9-b071-4949-ba74-992eeafcfe9f" d="m178.43,24.14l11.37-19.75c.16-.2.43-.52.81-.96.38-.44.97-.66,1.77-.66h4.07c.44,0,.82.16,1.14.48.32.32.48.7.48,1.14v38.67c0,.44-.16.82-.48,1.14-.32.32-.7.48-1.14.48h-4.85c-.44,0-.82-.16-1.14-.48-.32-.32-.48-.7-.48-1.14v-23.41l-7.78,13.47c-.2.32-.48.65-.84.99-.36.34-.82.51-1.38.51h-3.11c-.56,0-1.02-.17-1.38-.51-.36-.34-.64-.67-.84-.99l-7.78-13.47v23.41c0,.44-.16.82-.48,1.14-.32.32-.7.48-1.14.48h-4.85c-.44,0-.82-.16-1.14-.48-.32-.32-.48-.7-.48-1.14V4.39c0-.44.16-.82.48-1.14.32-.32.7-.48,1.14-.48h4.07c.8,0,1.39.22,1.77.66.38.44.65.76.81.96l11.37,19.75Z"/>
    <path class="uuid-8788b5f9-b071-4949-ba74-992eeafcfe9f" d="m209.02,44.67c-.44,0-.82-.16-1.14-.48-.32-.32-.48-.7-.48-1.14V4.39c0-.44.16-.82.48-1.14.32-.32.7-.48,1.14-.48h4.85c.44,0,.82.16,1.14.48.32.32.48.7.48,1.14v38.67c0,.44-.16.82-.48,1.14-.32.32-.7.48-1.14.48h-4.85Z"/>
    <path class="uuid-8788b5f9-b071-4949-ba74-992eeafcfe9f" d="m252.72,2.77c.44,0,.82.16,1.14.48.32.32.48.7.48,1.14v4.25c0,.44-.16.82-.48,1.14-.32.32-.7.48-1.14.48h-10.77v32.8c0,.44-.16.82-.48,1.14-.32.32-.7.48-1.14.48h-4.85c-.44,0-.82-.16-1.14-.48-.32-.32-.48-.7-.48-1.14V10.25h-10.77c-.44,0-.82-.16-1.14-.48-.32-.32-.48-.7-.48-1.14v-4.25c0-.44.16-.82.48-1.14.32-.32.7-.48,1.14-.48h29.63Z"/>
    <path class="uuid-8788b5f9-b071-4949-ba74-992eeafcfe9f" d="m277.38,2.77c4.99,0,8.78,1.16,11.37,3.47,2.59,2.31,3.89,5.53,3.89,9.64,0,2.91-.67,5.4-2.01,7.45-1.34,2.06-3.3,3.58-5.9,4.58l8.26,14.79c.12.24.18.46.18.66,0,.36-.13.67-.39.93-.26.26-.57.39-.93.39h-5.09c-.8,0-1.39-.19-1.77-.57-.38-.38-.65-.73-.81-1.05l-7.84-13.95h-7.96v13.95c0,.44-.16.82-.48,1.14-.32.32-.7.48-1.14.48h-4.85c-.44,0-.82-.16-1.14-.48-.32-.32-.48-.7-.48-1.14V4.39c0-.44.16-.82.48-1.14.32-.32.7-.48,1.14-.48h15.44Zm-8.98,18.86h8.68c2.27,0,4.09-.4,5.45-1.2,1.36-.8,2.04-2.31,2.04-4.55s-.68-3.73-2.04-4.49c-1.36-.76-3.17-1.14-5.45-1.14h-8.68v11.37Z"/>
    <path class="uuid-8788b5f9-b071-4949-ba74-992eeafcfe9f" d="m330.72,2.77c.44,0,.82.16,1.14.48.32.32.48.7.48,1.14,0,.2-.04.38-.12.54l-14.19,24.96v13.17c0,.44-.16.82-.48,1.14-.32.32-.7.48-1.14.48h-4.79c-.44,0-.82-.16-1.14-.48-.32-.32-.48-.7-.48-1.14v-13.17l-14.19-24.96c-.08-.16-.12-.34-.12-.54,0-.44.16-.82.48-1.14.32-.32.7-.48,1.14-.48h4.49c.8,0,1.4.2,1.8.6.4.4.64.7.72.9l9.7,16.94,9.7-16.94c.08-.2.32-.5.72-.9s1-.6,1.8-.6h4.49Z"/>
    <path class="uuid-8788b5f9-b071-4949-ba74-992eeafcfe9f" d="m148.44,89.16c.2.2.32.38.36.54.04.16.06.28.06.36,0,.44-.16.82-.48,1.14-.32.32-.7.48-1.14.48h-5.69c-.8,0-1.44-.21-1.92-.63-.48-.42-.76-.67-.84-.75l-14.07-15.86v15.62c0,.44-.16.82-.48,1.14-.32.32-.7.48-1.14.48h-4.85c-.44,0-.82-.16-1.14-.48-.32-.32-.48-.7-.48-1.14v-38.67c0-.44.16-.82.48-1.14.32-.32.7-.48,1.14-.48h4.85c.44,0,.82.16,1.14.48.32.32.48.7.48,1.14v14.07l13.05-14.37c.36-.4.74-.72,1.14-.96.4-.24.92-.36,1.56-.36h5.51c.44,0,.82.16,1.14.48.32.32.48.7.48,1.14,0,.32-.12.62-.36.9l-16.1,17.54,17.3,19.34Z"/>
    <path class="uuid-8788b5f9-b071-4949-ba74-992eeafcfe9f" d="m182.08,84.19c.44,0,.82.16,1.14.48.32.32.48.7.48,1.14v4.25c0,.44-.16.82-.48,1.14-.32.32-.7.48-1.14.48h-26.22c-.44,0-.82-.16-1.14-.48-.32-.32-.48-.7-.48-1.14v-38.67c0-.44.16-.82.48-1.14.32-.32.7-.48,1.14-.48h4.85c.44,0,.82.16,1.14.48.32.32.48.7.48,1.14v32.8h19.75Z"/>
    <path class="uuid-8788b5f9-b071-4949-ba74-992eeafcfe9f" d="m217.34,84.19c.44,0,.82.16,1.14.48.32.32.48.7.48,1.14v4.25c0,.44-.16.82-.48,1.14-.32.32-.7.48-1.14.48h-26.28c-.44,0-.82-.16-1.14-.48-.32-.32-.48-.7-.48-1.14v-38.67c0-.44.16-.82.48-1.14.32-.32.7-.48,1.14-.48h25.8c.44,0,.82.16,1.14.48.32.32.48.7.48,1.14v4.25c0,.44-.16.82-.48,1.14-.32.32-.7.48-1.14.48h-19.33v9.52h18.02c.44,0,.82.16,1.14.48.32.32.48.7.48,1.14v4.25c0,.44-.16.82-.48,1.14-.32.32-.7.48-1.14.48h-18.02v9.94h19.81Z"/>
    <path class="uuid-8788b5f9-b071-4949-ba74-992eeafcfe9f" d="m241.58,79.82l10.06-28.55c.12-.32.33-.65.63-.99.3-.34.75-.51,1.35-.51h4.55c.44,0,.82.16,1.14.48.32.32.48.7.48,1.14v.21c0,.06-.04.19-.12.39l-13.41,37.65c-.24.68-.52,1.19-.84,1.53-.32.34-.8.51-1.44.51h-4.79c-.64,0-1.12-.17-1.44-.51-.32-.34-.6-.85-.84-1.53l-13.41-37.65c-.08-.2-.12-.33-.12-.39v-.21c0-.44.16-.82.48-1.14.32-.32.7-.48,1.14-.48h4.55c.6,0,1.05.17,1.35.51.3.34.51.67.63.99l10.06,28.55Z"/>
    <path class="uuid-8788b5f9-b071-4949-ba74-992eeafcfe9f" d="m294.02,49.77c.44,0,.82.16,1.14.48.32.32.48.7.48,1.14v4.25c0,.44-.16.82-.48,1.14-.32.32-.7.48-1.14.48h-10.77v32.8c0,.44-.16.82-.48,1.14-.32.32-.7.48-1.14.48h-4.85c-.44,0-.82-.16-1.14-.48-.32-.32-.48-.7-.48-1.14v-32.8h-10.77c-.44,0-.82-.16-1.14-.48-.32-.32-.48-.7-.48-1.14v-4.25c0-.44.16-.82.48-1.14.32-.32.7-.48,1.14-.48h29.63Z"/>
    <path class="uuid-8788b5f9-b071-4949-ba74-992eeafcfe9f" d="m315.69,49.17c2.67,0,5.03.36,7.06,1.08s3.73,1.62,5.09,2.69c1.36,1.08,2.38,2.27,3.08,3.56.7,1.3,1.09,2.52,1.17,3.68.04.48-.11.87-.45,1.17-.34.3-.73.45-1.17.45h-4.19c-.68,0-1.19-.13-1.53-.39-.34-.26-.65-.61-.93-1.05-.6-1-1.51-1.87-2.72-2.6-1.22-.74-3.02-1.11-5.42-1.11-1.04,0-2.03.11-2.96.33-.94.22-1.76.54-2.46.96-.7.42-1.25.93-1.65,1.53-.4.6-.6,1.28-.6,2.04,0,.92.19,1.67.57,2.24.38.58,1.02,1.08,1.92,1.5.9.42,2.08.81,3.56,1.17,1.48.36,3.31.78,5.51,1.26,2.39.52,4.46,1.13,6.2,1.83,1.74.7,3.15,1.54,4.25,2.51,1.1.98,1.92,2.11,2.45,3.38.54,1.28.81,2.73.81,4.37,0,1.8-.4,3.46-1.2,5-.8,1.54-1.94,2.85-3.41,3.95-1.48,1.1-3.29,1.97-5.45,2.6-2.16.64-4.57.96-7.24.96-2.24,0-4.37-.27-6.41-.81-2.04-.54-3.84-1.32-5.42-2.33-1.58-1.02-2.84-2.25-3.8-3.68-.96-1.44-1.5-3.03-1.62-4.79-.04-.48.11-.87.45-1.17s.73-.45,1.17-.45h4.19c.68,0,1.2.12,1.56.36.36.24.66.6.9,1.08.28.52.62,1.04,1.02,1.56.4.52.94.98,1.62,1.38.68.4,1.53.73,2.54.99,1.02.26,2.28.39,3.8.39,1.2,0,2.35-.09,3.47-.27,1.12-.18,2.09-.48,2.93-.9s1.52-.94,2.04-1.56c.52-.62.78-1.39.78-2.3s-.28-1.6-.84-2.15c-.56-.56-1.41-1.04-2.54-1.44-1.14-.4-2.54-.78-4.22-1.14-1.68-.36-3.61-.82-5.81-1.38-2-.48-3.74-1.05-5.24-1.71-1.5-.66-2.73-1.47-3.71-2.42s-1.71-2.08-2.18-3.38c-.48-1.3-.72-2.84-.72-4.64s.4-3.45,1.2-4.97c.8-1.52,1.9-2.81,3.29-3.89,1.4-1.08,3.06-1.93,5-2.54,1.94-.62,4.02-.93,6.26-.93Z"/>
    <path class="uuid-8788b5f9-b071-4949-ba74-992eeafcfe9f" d="m338.68,65.39c.12-2.23.55-4.34,1.29-6.32.74-1.98,1.83-3.69,3.26-5.15,1.44-1.46,3.23-2.61,5.39-3.47,2.15-.86,4.71-1.29,7.66-1.29s5.45.42,7.6,1.26c2.16.84,3.95,2,5.39,3.47,1.44,1.48,2.53,3.19,3.29,5.15.76,1.96,1.2,4.07,1.32,6.35.04.76.07,1.6.09,2.51.02.92.03,1.87.03,2.84s0,1.93-.03,2.84c-.02.92-.05,1.76-.09,2.51-.12,2.24-.55,4.34-1.29,6.32-.74,1.98-1.83,3.69-3.26,5.15-1.44,1.46-3.24,2.6-5.42,3.44-2.17.84-4.72,1.26-7.63,1.26s-5.51-.42-7.66-1.26c-2.16-.84-3.95-1.98-5.39-3.44-1.44-1.46-2.52-3.17-3.26-5.15-.74-1.98-1.17-4.08-1.29-6.32-.04-.76-.07-1.6-.09-2.51-.02-.92-.03-1.87-.03-2.84s0-1.92.03-2.84c.02-.92.05-1.76.09-2.51Zm27.12.3c-.16-2.87-1.09-5.1-2.78-6.67-1.7-1.58-3.94-2.36-6.73-2.36s-5.04.79-6.73,2.36c-1.7,1.58-2.62,3.8-2.78,6.67-.08,1.52-.12,3.2-.12,5.06s.04,3.54.12,5.06c.16,2.87,1.09,5.09,2.78,6.64,1.7,1.56,3.94,2.33,6.73,2.33s5.04-.78,6.73-2.33c1.7-1.56,2.62-3.77,2.78-6.64.08-1.52.12-3.2.12-5.06s-.04-3.54-.12-5.06Z"/>
    <path class="uuid-8788b5f9-b071-4949-ba74-992eeafcfe9f" d="m395.67,79.82l10.06-28.55c.12-.32.33-.65.63-.99.3-.34.75-.51,1.35-.51h4.55c.44,0,.82.16,1.14.48.32.32.48.7.48,1.14v.21c0,.06-.04.19-.12.39l-13.41,37.65c-.24.68-.52,1.19-.84,1.53-.32.34-.8.51-1.44.51h-4.79c-.64,0-1.12-.17-1.44-.51-.32-.34-.6-.85-.84-1.53l-13.41-37.65c-.08-.2-.12-.33-.12-.39v-.21c0-.44.16-.82.48-1.14.32-.32.7-.48,1.14-.48h4.55c.6,0,1.05.17,1.35.51.3.34.51.67.63.99l10.06,28.55Z"/>
  </g>
  <g>
    <path class="uuid-8788b5f9-b071-4949-ba74-992eeafcfe9f" d="m124.31,103.58c1.58,0,2.9.18,3.96.52,1.06.35,1.91.87,2.55,1.56.64.69,1.1,1.54,1.38,2.55.28,1.01.43,2.17.45,3.47.02.9.03,1.69.03,2.38s-.01,1.49-.03,2.39c-.04,1.38-.19,2.58-.46,3.6-.27,1.02-.72,1.86-1.35,2.53-.63.67-1.47,1.17-2.5,1.5-1.04.33-2.33.5-3.87.5h-6.54c-.44,0-.66-.22-.66-.66v-19.65c0-.46.22-.69.66-.69h6.39Zm6.45,8.25c-.02-1.1-.15-2.06-.39-2.87-.24-.81-.62-1.48-1.14-2.01-.52-.53-1.2-.92-2.02-1.19-.83-.26-1.85-.39-3.04-.39h-5.01v17.4h5.16c1.2,0,2.21-.12,3.01-.36.81-.24,1.46-.61,1.97-1.12.5-.51.86-1.17,1.09-1.99.23-.82.35-1.82.38-3,0-.44,0-.84.01-1.2s.02-.71.02-1.04,0-.67-.02-1.02c0-.35-.01-.75-.01-1.21Z"/>
    <path class="uuid-8788b5f9-b071-4949-ba74-992eeafcfe9f" d="m136.4,115.58c.08-1.02.29-1.95.62-2.81.33-.85.77-1.57,1.32-2.17s1.21-1.07,2-1.41c.78-.34,1.66-.51,2.64-.51,2.1,0,3.73.69,4.89,2.05,1.16,1.37,1.74,3.27,1.74,5.69v.45c0,.2-.07.36-.2.48s-.29.18-.5.18h-10.68v.3c.02.68.14,1.34.38,1.98.23.64.54,1.21.94,1.69.4.49.89.89,1.47,1.19.58.3,1.23.45,1.95.45.64,0,1.2-.08,1.68-.24.48-.16.89-.34,1.23-.55s.62-.42.83-.65c.21-.22.36-.39.44-.51.18-.26.32-.41.42-.46s.26-.08.48-.08h.48c.18,0,.33.06.46.17.13.11.18.26.17.44-.02.28-.18.63-.46,1.05-.29.42-.7.82-1.23,1.2-.53.38-1.17.71-1.93.98-.76.27-1.61.4-2.55.4s-1.83-.17-2.61-.49c-.78-.33-1.45-.8-2.01-1.41-.56-.61-1-1.34-1.33-2.19s-.54-1.79-.62-2.81c-.02-.3-.03-.7-.03-1.2s0-.9.03-1.2Zm1.83.27h9.54v-.12c0-.74-.11-1.43-.33-2.08-.22-.65-.54-1.21-.95-1.69s-.92-.85-1.51-1.12c-.6-.27-1.27-.41-2.01-.41s-1.43.14-2.01.41-1.08.65-1.48,1.12c-.41.48-.72,1.05-.93,1.69-.21.65-.31,1.35-.31,2.08v.12Z"/>
    <path class="uuid-8788b5f9-b071-4949-ba74-992eeafcfe9f" d="m157.69,124.37c-.17-.14-.3-.32-.4-.54l-5.52-13.92c-.04-.12-.06-.23-.06-.33,0-.16.06-.3.18-.42s.26-.18.42-.18h.63c.2,0,.35.06.45.17.1.11.17.21.21.29l5.07,12.96,5.07-12.96c.04-.08.11-.17.21-.29.1-.11.25-.17.45-.17h.63c.16,0,.3.06.42.18.12.12.18.26.18.42,0,.1-.02.21-.06.33l-5.52,13.92c-.1.22-.24.4-.41.54-.17.14-.42.21-.74.21h-.48c-.32,0-.57-.07-.74-.21Z"/>
    <path class="uuid-8788b5f9-b071-4949-ba74-992eeafcfe9f" d="m167.81,115.58c.08-1.02.29-1.95.62-2.81.33-.85.77-1.57,1.32-2.17s1.21-1.07,2-1.41c.78-.34,1.66-.51,2.64-.51,2.1,0,3.73.69,4.89,2.05,1.16,1.37,1.74,3.27,1.74,5.69v.45c0,.2-.07.36-.2.48s-.29.18-.5.18h-10.68v.3c.02.68.14,1.34.38,1.98.23.64.54,1.21.94,1.69.4.49.89.89,1.47,1.19.58.3,1.23.45,1.95.45.64,0,1.2-.08,1.68-.24.48-.16.89-.34,1.23-.55s.62-.42.83-.65c.21-.22.36-.39.44-.51.18-.26.32-.41.42-.46s.26-.08.48-.08h.48c.18,0,.33.06.46.17.13.11.18.26.17.44-.02.28-.18.63-.46,1.05-.29.42-.7.82-1.23,1.2-.53.38-1.17.71-1.93.98-.76.27-1.61.4-2.55.4s-1.83-.17-2.61-.49c-.78-.33-1.45-.8-2.01-1.41-.56-.61-1-1.34-1.33-2.19s-.54-1.79-.62-2.81c-.02-.3-.03-.7-.03-1.2s0-.9.03-1.2Zm1.83.27h9.54v-.12c0-.74-.11-1.43-.33-2.08-.22-.65-.54-1.21-.95-1.69s-.92-.85-1.51-1.12c-.6-.27-1.27-.41-2.01-.41s-1.43.14-2.01.41-1.08.65-1.48,1.12c-.41.48-.72,1.05-.93,1.69-.21.65-.31,1.35-.31,2.08v.12Z"/>
    <path class="uuid-8788b5f9-b071-4949-ba74-992eeafcfe9f" d="m186.83,123.92c0,.44-.22.66-.66.66h-.51c-.44,0-.66-.22-.66-.66v-19.98c0-.44.22-.66.66-.66h.51c.44,0,.66.22.66.66v19.98Z"/>
    <path class="uuid-8788b5f9-b071-4949-ba74-992eeafcfe9f" d="m197.66,108.68c1.08,0,2.03.18,2.85.52.82.35,1.5.83,2.05,1.44.55.61.97,1.33,1.26,2.18.29.84.45,1.74.49,2.7,0,.16,0,.35.02.57,0,.22.01.45.01.69s0,.48-.01.7c-.01.23-.02.42-.02.56-.04.96-.21,1.86-.49,2.7-.29.84-.71,1.56-1.26,2.17-.55.61-1.23,1.09-2.05,1.44s-1.77.52-2.85.52-2.03-.18-2.85-.52-1.5-.83-2.05-1.44c-.55-.61-.97-1.33-1.28-2.17-.3-.84-.46-1.74-.48-2.7,0-.14,0-.32-.02-.56,0-.23-.01-.46-.01-.7s0-.47.01-.69c.01-.22.02-.41.02-.57.02-.96.18-1.86.48-2.7.3-.84.72-1.56,1.28-2.18.55-.61,1.23-1.09,2.05-1.44.82-.35,1.77-.52,2.85-.52Zm4.83,6.99c-.06-1.72-.53-3.02-1.41-3.92-.88-.89-2.02-1.33-3.42-1.33s-2.54.45-3.42,1.33c-.88.89-1.35,2.2-1.41,3.92-.02.3-.03.67-.03,1.11s0,.81.03,1.11c.06,1.72.53,3.03,1.41,3.92.88.89,2.02,1.33,3.42,1.33s2.54-.44,3.42-1.33c.88-.89,1.35-2.19,1.41-3.92.02-.3.03-.67.03-1.11s0-.81-.03-1.11Z"/>
    <path class="uuid-8788b5f9-b071-4949-ba74-992eeafcfe9f" d="m215.36,124.88c-1.26,0-2.29-.23-3.09-.69-.8-.46-1.45-1.02-1.95-1.68v7.11c0,.44-.22.66-.66.66h-.51c-.44,0-.66-.22-.66-.66v-19.98c0-.44.22-.66.66-.66h.51c.44,0,.66.22.66.66v1.41c.5-.68,1.15-1.25,1.95-1.7.8-.45,1.83-.67,3.09-.67,1.16,0,2.15.21,2.96.61.81.41,1.46.95,1.96,1.62.5.67.87,1.43,1.1,2.28.23.85.36,1.71.4,2.59.02.3.03.63.03.99s-.01.69-.03.99c-.04.88-.17,1.75-.4,2.6-.23.85-.6,1.61-1.1,2.28-.5.67-1.15,1.21-1.96,1.62-.81.41-1.79.61-2.96.61Zm-5.04-9.18c-.02.3-.03.69-.03,1.17s.01.87.03,1.17c.02.6.12,1.21.32,1.81.19.61.48,1.16.88,1.64.4.48.9.88,1.5,1.19s1.32.46,2.16.46,1.61-.15,2.21-.45c.59-.3,1.07-.71,1.44-1.21.37-.51.64-1.1.81-1.77.17-.67.27-1.37.31-2.08.02-.56.02-1.12,0-1.68-.04-.72-.14-1.41-.31-2.07s-.44-1.25-.81-1.75c-.37-.51-.85-.92-1.44-1.23-.59-.31-1.33-.47-2.21-.47s-1.59.16-2.19.48c-.6.32-1.09.74-1.48,1.25-.39.51-.68,1.08-.87,1.69-.19.62-.3,1.24-.32,1.86Z"/>
    <path class="uuid-8788b5f9-b071-4949-ba74-992eeafcfe9f" d="m225.11,115.58c.08-1.02.29-1.95.62-2.81.33-.85.77-1.57,1.32-2.17s1.21-1.07,2-1.41c.78-.34,1.66-.51,2.64-.51,2.1,0,3.73.69,4.89,2.05,1.16,1.37,1.74,3.27,1.74,5.69v.45c0,.2-.06.36-.19.48-.13.12-.3.18-.5.18h-10.68v.3c.02.68.14,1.34.38,1.98.23.64.54,1.21.94,1.69.4.49.89.89,1.47,1.19.58.3,1.23.45,1.95.45.64,0,1.2-.08,1.68-.24.48-.16.89-.34,1.23-.55s.62-.42.83-.65c.21-.22.35-.39.43-.51.18-.26.32-.41.42-.46.1-.05.26-.08.48-.08h.48c.18,0,.33.06.47.17.13.11.18.26.17.44-.02.28-.18.63-.47,1.05-.29.42-.7.82-1.23,1.2-.53.38-1.17.71-1.94.98-.76.27-1.61.4-2.55.4s-1.83-.17-2.61-.49c-.78-.33-1.45-.8-2.01-1.41-.56-.61-1-1.34-1.33-2.19s-.54-1.79-.62-2.81c-.02-.3-.03-.7-.03-1.2s0-.9.03-1.2Zm1.83.27h9.54v-.12c0-.74-.11-1.43-.33-2.08-.22-.65-.54-1.21-.95-1.69-.41-.48-.92-.85-1.51-1.12-.6-.27-1.27-.41-2.01-.41s-1.43.14-2.01.41-1.08.65-1.49,1.12-.72,1.05-.93,1.69c-.21.65-.31,1.35-.31,2.08v.12Z"/>
    <path class="uuid-8788b5f9-b071-4949-ba74-992eeafcfe9f" d="m248.18,108.98h1.11c.44,0,.66.22.66.66v.42c0,.44-.22.66-.66.66h-1.29c-1.2,0-2.15.35-2.85,1.05-.7.7-1.05,1.65-1.05,2.85v9.3c0,.2-.06.36-.19.48-.13.12-.3.18-.5.18h-.48c-.44,0-.66-.22-.66-.66v-14.25c0-.2.06-.36.18-.49s.28-.2.48-.2h.48c.2,0,.36.07.5.2.13.13.19.29.19.49v1.38c.72-1.38,2.08-2.07,4.08-2.07Z"/>
  </g>
  <rect class="uuid-8788b5f9-b071-4949-ba74-992eeafcfe9f" x="102.74" y="0" width="4.15" height="131.56" rx="2.07" ry="2.07"/>
  <rect class="uuid-7601a955-dea9-44b4-baaf-567102d17fe3" y=".89" width="92.67" height="130.67" rx="5" ry="5"/>
  <path class="uuid-cf155c50-3e90-4fb6-a166-204e2ac1cfe2" d="m26.56,88.11h40.67c3.86,0,3.87-6,0-6H26.56c-3.86,0-3.87,6,0,6h0Z"/>
  <path class="uuid-cf155c50-3e90-4fb6-a166-204e2ac1cfe2" d="m26.56,98.33h40.67c3.86,0,3.87-6,0-6H26.56c-3.86,0-3.87,6,0,6h0Z"/>
  <rect class="uuid-ce9bda87-da5d-44e2-93c5-532b99a80887" x="24.81" y="25.63" width="43.11" height="42.07" rx="5" ry="5"/>
</svg>