<svg width="23" height="21" viewBox="0 0 23 21" fill="none" xmlns="http://www.w3.org/2000/svg">
<path d="M10.6093 0.74536C10.9804 0.0181084 12.0196 0.0181086 12.3907 0.74536L15.0159 5.88939C15.1612 6.17411 15.4338 6.37221 15.7495 6.42242L21.453 7.32951C22.2594 7.45776 22.5805 8.44604 22.0035 9.02375L17.9225 13.11C17.6966 13.3362 17.5924 13.6567 17.6422 13.9725L18.542 19.6771C18.6692 20.4836 17.8285 21.0944 17.1008 20.7242L11.9534 18.1057C11.6685 17.9607 11.3315 17.9607 11.0466 18.1057L5.89918 20.7242C5.17146 21.0944 4.33077 20.4836 4.45798 19.6771L5.35776 13.9725C5.40756 13.6567 5.30341 13.3362 5.07753 13.11L0.996483 9.02375C0.419515 8.44604 0.74063 7.45776 1.54698 7.32951L7.25047 6.42242C7.56615 6.37221 7.83881 6.17411 7.98411 5.88939L10.6093 0.74536Z" fill="white"/>
</svg>
