<svg width="26" height="26" viewBox="0 0 26 26" fill="none" xmlns="http://www.w3.org/2000/svg">
<path d="M17.3333 9.09996L7.71873 18.7416C7.50206 18.9583 7.24459 19.0666 6.94631 19.0666C6.64803 19.0666 6.39092 18.9583 6.17498 18.7416C5.95831 18.525 5.84998 18.2675 5.84998 17.9692C5.84998 17.6709 5.95831 17.4138 6.17498 17.1979L15.8166 7.5833H7.58331C7.27636 7.5833 7.01889 7.4793 6.81089 7.2713C6.60289 7.0633 6.49925 6.80619 6.49998 6.49996C6.49998 6.19302 6.60398 5.93555 6.81198 5.72755C7.01998 5.51955 7.27709 5.41591 7.58331 5.41663H18.4166C18.7236 5.41663 18.9811 5.52063 19.1891 5.72863C19.3971 5.93663 19.5007 6.19374 19.5 6.49996V17.3333C19.5 17.6402 19.396 17.8977 19.188 18.1057C18.98 18.3137 18.7229 18.4174 18.4166 18.4166C18.1097 18.4166 17.8522 18.3126 17.6442 18.1046C17.4362 17.8966 17.3326 17.6395 17.3333 17.3333V9.09996Z" fill="white"/>
</svg>
