<svg width="40" height="39" viewBox="0 0 40 39" fill="none" xmlns="http://www.w3.org/2000/svg">
<path d="M19.1093 0.745361C19.4804 0.0181102 20.5196 0.0181088 20.8907 0.74536L26.3637 11.4697C26.509 11.7544 26.7817 11.9525 27.0974 12.0027L38.9881 13.8939C39.7944 14.0221 40.1155 15.0104 39.5386 15.5881L31.0303 24.1072C30.8045 24.3334 30.7003 24.6539 30.7501 24.9697L32.626 36.8628C32.7532 37.6693 31.9125 38.2801 31.1848 37.9099L20.4534 32.4507C20.1685 32.3057 19.8315 32.3057 19.5466 32.4507L8.81523 37.9099C8.0875 38.2801 7.24681 37.6693 7.37402 36.8628L9.24989 24.9697C9.29969 24.6539 9.19554 24.3334 8.96966 24.1072L0.461448 15.5881C-0.11552 15.0104 0.205594 14.0221 1.01194 13.8939L12.9026 12.0027C13.2183 11.9525 13.491 11.7544 13.6363 11.4697L19.1093 0.745361Z" fill="white"/>
</svg>
