<svg width="65" height="65" viewBox="0 0 65 65" fill="none" xmlns="http://www.w3.org/2000/svg">
<path d="M23.6723 41.1174C25.0842 42.5463 26.7004 43.7575 28.4681 44.7116C25.496 47.3886 15.3648 50.1028 15.0325 49.7705C14.6976 49.4329 16.9918 38.6345 19.9213 36C20.8411 37.8343 22.1464 39.5888 23.6723 41.1174Z" fill="white"/>
<path fill-rule="evenodd" clip-rule="evenodd" d="M53.2658 20.0361C52.3008 24.1141 49.7195 29.6754 43.5866 36.566L42.9513 42.9674C42.7811 44.5013 42.0953 45.9342 41.0053 47.0241L34.673 53.3671C34.4709 53.5665 34.2114 53.6978 33.9309 53.7424C33.6504 53.787 33.363 53.7428 33.1089 53.6159C32.8548 53.489 32.6468 53.2858 32.514 53.0347C32.3811 52.7837 32.3302 52.4974 32.3682 52.216L33.0886 47.165C33.195 46.4207 33.0514 45.5886 32.7377 44.6236C32.5357 44.0042 32.3124 43.4566 32.0758 42.877L31.8578 42.34C29.6912 41.8163 27.6628 40.5775 26.0332 38.9453C24.3983 37.3103 23.1648 35.2793 22.6438 33.1101L22.1041 32.8894C22.0681 32.8749 22.0322 32.8604 21.9965 32.846C21.4566 32.6278 20.9413 32.4196 20.3629 32.2302C19.3979 31.9138 18.5685 31.7729 17.8241 31.8792L12.7838 32.5997C12.5018 32.6384 12.2148 32.5878 11.9631 32.4549C11.7113 32.322 11.5076 32.1135 11.3806 31.8588C11.2535 31.6041 11.2095 31.316 11.2547 31.035C11.3 30.7539 11.4322 30.4942 11.6327 30.2922L17.965 23.9493C19.0544 22.8572 20.4834 22.1689 22.0164 21.998H22.0324L28.4125 21.3653C35.1728 15.3547 40.7076 12.7787 44.7909 11.7844C47.1568 11.2049 49.0177 11.1677 50.3203 11.2847C50.831 11.3285 51.3375 11.4111 51.8356 11.5319C51.9788 11.5667 52.1206 11.6067 52.261 11.6515C52.7501 11.8137 53.0026 12.0024 53.1967 12.4384C53.2769 12.6383 53.3462 12.8424 53.4041 13.0498C53.5396 13.5403 53.6357 14.0408 53.6912 14.5465C53.8347 15.8358 53.8241 17.6781 53.2658 20.0361ZM42.0975 27.3551C44.782 27.3551 46.9583 25.1788 46.9583 22.4943C46.9583 19.8097 44.782 17.6335 42.0975 17.6335C39.4129 17.6335 37.2367 19.8097 37.2367 22.4943C37.2367 25.1788 39.4129 27.3551 42.0975 27.3551Z" fill="white"/>
</svg>
