<svg width="40" height="40" viewBox="0 0 40 40" fill="none" xmlns="http://www.w3.org/2000/svg">
<path fill-rule="evenodd" clip-rule="evenodd" d="M20 36.5716C29.1521 36.5716 36.5714 29.1523 36.5714 20.0001C36.5714 10.848 29.1521 3.42871 20 3.42871C10.8478 3.42871 3.42856 10.848 3.42856 20.0001C3.42856 29.1523 10.8478 36.5716 20 36.5716ZM11.7143 28.2859C11.9047 28.4763 12.1428 28.5716 12.4286 28.5716C14.4755 28.5722 16.4714 28.116 18.4162 27.203C20.3609 26.29 22.0832 25.0836 23.5828 23.5839C25.0825 22.0843 26.2889 20.362 27.2019 18.4173C28.1149 16.4725 28.5714 14.4763 28.5714 12.4287C28.5714 12.143 28.4762 11.9049 28.2857 11.7144C28.0952 11.5239 27.8571 11.4287 27.5714 11.4287H23.7143C23.4921 11.4287 23.2936 11.5001 23.119 11.643C22.9444 11.7859 22.8413 11.9684 22.8095 12.1906L22.1905 15.5239C22.1581 15.7455 22.1619 15.9478 22.2019 16.1306C22.2419 16.3135 22.3333 16.4763 22.4762 16.6192L24.7619 18.9525C24.0952 20.0954 23.2619 21.1668 22.2619 22.1668C21.2619 23.1668 20.1587 24.0319 18.9524 24.762L16.7143 22.5239C16.5721 22.3817 16.3857 22.2747 16.1552 22.203C15.9247 22.1313 15.6984 22.1112 15.4762 22.143L12.1905 22.8097C11.9682 22.8566 11.7857 22.9636 11.6428 23.1306C11.5 23.2976 11.4286 23.4922 11.4286 23.7144V27.5716C11.4286 27.8573 11.5238 28.0954 11.7143 28.2859Z" fill="#151515"/>
</svg>
