<svg width="40" height="40" viewBox="0 0 40 40" fill="none" xmlns="http://www.w3.org/2000/svg">
<path d="M20 3.3335C10.8 3.3335 3.33334 10.8002 3.33334 20.0002C3.33334 29.2002 10.8 36.6668 20 36.6668C29.2 36.6668 36.6667 29.2002 36.6667 20.0002C36.6667 10.8002 29.2 3.3335 20 3.3335ZM27.7333 14.6668C27.4833 17.3002 26.4 23.7002 25.85 26.6502C25.6167 27.9002 25.15 28.3168 24.7167 28.3668C23.75 28.4502 23.0167 27.7335 22.0833 27.1168C20.6167 26.1502 19.7833 25.5502 18.3667 24.6168C16.7167 23.5335 17.7833 22.9335 18.7333 21.9668C18.9833 21.7168 23.25 17.8335 23.3333 17.4835C23.3449 17.4305 23.3434 17.3754 23.3289 17.3232C23.3143 17.2709 23.2873 17.2229 23.25 17.1835C23.15 17.1002 23.0167 17.1335 22.9 17.1502C22.75 17.1835 20.4167 18.7335 15.8667 21.8002C15.2 22.2502 14.6 22.4835 14.0667 22.4668C13.4667 22.4502 12.3333 22.1335 11.4833 21.8502C10.4333 21.5168 9.61668 21.3335 9.68334 20.7502C9.71668 20.4502 10.1333 20.1502 10.9167 19.8335C15.7833 17.7168 19.0167 16.3168 20.6333 15.6502C25.2667 13.7168 26.2167 13.3835 26.85 13.3835C26.9833 13.3835 27.3 13.4168 27.5 13.5835C27.6667 13.7168 27.7167 13.9002 27.7333 14.0335C27.7167 14.1335 27.75 14.4335 27.7333 14.6668Z" fill="#1E88EA"/>
</svg>
