<svg width="45" height="45" viewBox="0 0 45 45" fill="none" xmlns="http://www.w3.org/2000/svg">
<path d="M3.75749 41.25L6.29249 31.935C4.62213 29.0716 3.74455 25.815 3.74999 22.5C3.74999 12.1444 12.1444 3.75 22.5 3.75C32.8556 3.75 41.25 12.1444 41.25 22.5C41.25 32.8556 32.8556 41.25 22.5 41.25C19.1865 41.2553 15.9312 40.3784 13.0687 38.7094L3.75749 41.25ZM15.7331 13.7025C15.491 13.7175 15.2544 13.7813 15.0375 13.89C14.8341 14.0052 14.6484 14.1492 14.4862 14.3175C14.2612 14.5294 14.1337 14.7131 13.9969 14.8912C13.3039 15.7931 12.9311 16.9002 12.9375 18.0375C12.9412 18.9562 13.1812 19.8506 13.5562 20.6869C14.3231 22.3781 15.585 24.1687 17.2519 25.8281C17.6531 26.2275 18.045 26.6287 18.4669 27.0019C20.5357 28.8234 23.0011 30.1369 25.6669 30.8381L26.7337 31.0012C27.0806 31.02 27.4275 30.9937 27.7762 30.9769C28.3223 30.9487 28.8555 30.8008 29.3381 30.5438C29.5837 30.4173 29.8233 30.2796 30.0562 30.1312C30.0562 30.1312 30.1369 30.0787 30.2906 29.9625C30.5437 29.775 30.6994 29.6419 30.9094 29.4225C31.065 29.2612 31.2 29.0719 31.3031 28.8562C31.4494 28.5506 31.5956 27.9675 31.6556 27.4819C31.7006 27.1106 31.6875 26.9081 31.6819 26.7825C31.6744 26.5819 31.5075 26.3737 31.3256 26.2856L30.2344 25.7962C30.2344 25.7962 28.6031 25.0856 27.6075 24.6319C27.5025 24.5861 27.39 24.5601 27.2756 24.555C27.1473 24.5418 27.0177 24.5563 26.8955 24.5973C26.7732 24.6384 26.6612 24.7052 26.5669 24.7931V24.7894C26.5575 24.7894 26.4319 24.8962 25.0762 26.5387C24.9984 26.6433 24.8913 26.7223 24.7684 26.7657C24.6455 26.8091 24.5125 26.815 24.3862 26.7825C24.2641 26.7498 24.1444 26.7085 24.0281 26.6587C23.7956 26.5612 23.715 26.5237 23.5556 26.4544L23.5462 26.4506C22.4736 25.9823 21.4804 25.3497 20.6025 24.5756C20.3662 24.3694 20.1469 24.1444 19.9219 23.9269C19.1842 23.2204 18.5413 22.4213 18.0094 21.5494L17.8987 21.3712C17.8193 21.2516 17.755 21.1224 17.7075 20.9869C17.6362 20.7112 17.8219 20.49 17.8219 20.49C17.8219 20.49 18.2775 19.9912 18.4894 19.7212C18.6658 19.4969 18.8304 19.2634 18.9825 19.0219C19.2037 18.6656 19.2731 18.3 19.1569 18.0169C18.6319 16.7344 18.0881 15.4575 17.5294 14.19C17.4187 13.9387 17.0906 13.7587 16.7925 13.7231C16.6912 13.7119 16.59 13.7006 16.4887 13.6931C16.2369 13.6806 15.9846 13.685 15.7331 13.7025Z" fill="white"/>
</svg>
