<svg width="35" height="35" viewBox="0 0 35 35" fill="none" xmlns="http://www.w3.org/2000/svg">
<path d="M17.5 2.91666C9.45002 2.91666 2.91669 9.44999 2.91669 17.5C2.91669 25.55 9.45002 32.0833 17.5 32.0833C25.55 32.0833 32.0834 25.55 32.0834 17.5C32.0834 9.44999 25.55 2.91666 17.5 2.91666ZM24.2667 12.8333C24.0479 15.1375 23.1 20.7375 22.6188 23.3187C22.4146 24.4125 22.0063 24.7771 21.6271 24.8208C20.7813 24.8937 20.1396 24.2667 19.3229 23.7271C18.0396 22.8812 17.3104 22.3562 16.0709 21.5396C14.6271 20.5917 15.5604 20.0667 16.3917 19.2208C16.6104 19.0021 20.3438 15.6042 20.4167 15.2979C20.4268 15.2515 20.4255 15.2034 20.4128 15.1576C20.4001 15.1119 20.3764 15.0699 20.3438 15.0354C20.2563 14.9625 20.1396 14.9917 20.0375 15.0062C19.9063 15.0354 17.8646 16.3917 13.8834 19.075C13.3 19.4687 12.775 19.6729 12.3084 19.6583C11.7834 19.6437 10.7917 19.3667 10.0479 19.1187C9.12919 18.8271 8.4146 18.6667 8.47294 18.1562C8.5021 17.8937 8.86669 17.6312 9.5521 17.3542C13.8104 15.5021 16.6396 14.2771 18.0542 13.6937C22.1084 12.0021 22.9396 11.7104 23.4938 11.7104C23.6104 11.7104 23.8875 11.7396 24.0625 11.8854C24.2084 12.0021 24.2521 12.1625 24.2667 12.2792C24.2521 12.3667 24.2813 12.6292 24.2667 12.8333Z" fill="#151515"/>
</svg>
