<svg width="31" height="31" viewBox="0 0 31 31" fill="none" xmlns="http://www.w3.org/2000/svg">
<path d="M0.922509 30.0833L2.89418 22.8383C1.595 20.6112 0.912441 18.0783 0.916676 15.5C0.916676 7.44562 7.44563 0.916656 15.5 0.916656C23.5544 0.916656 30.0833 7.44562 30.0833 15.5C30.0833 23.5544 23.5544 30.0833 15.5 30.0833C12.9228 30.0875 10.391 29.4054 8.16459 28.1073L0.922509 30.0833ZM10.2369 8.65749C10.0486 8.66918 9.86453 8.71879 9.69584 8.80332C9.53765 8.89291 9.39323 9.0049 9.26709 9.13582C9.09209 9.30062 8.99293 9.44353 8.88647 9.58207C8.34748 10.2835 8.05757 11.1446 8.06251 12.0292C8.06543 12.7437 8.25209 13.4394 8.54376 14.0898C9.14022 15.4052 10.1217 16.7979 11.4181 18.0885C11.7302 18.3992 12.035 18.7112 12.3631 19.0014C13.9722 20.4182 15.8898 21.4398 17.9631 21.9852L18.7929 22.1121C19.0627 22.1267 19.3325 22.1062 19.6038 22.0931C20.0285 22.0712 20.4432 21.9562 20.8186 21.7562C21.0095 21.6579 21.1959 21.5508 21.3771 21.4354C21.3771 21.4354 21.4398 21.3946 21.5594 21.3042C21.7563 21.1583 21.8773 21.0548 22.0406 20.8842C22.1617 20.7587 22.2667 20.6114 22.3469 20.4437C22.4606 20.206 22.5744 19.7525 22.621 19.3748C22.6561 19.086 22.6458 18.9285 22.6415 18.8308C22.6356 18.6748 22.5058 18.5129 22.3644 18.4444L21.5156 18.0637C21.5156 18.0637 20.2469 17.511 19.4725 17.1581C19.3909 17.1225 19.3034 17.1023 19.2144 17.0983C19.1146 17.0881 19.0138 17.0993 18.9187 17.1312C18.8236 17.1632 18.7365 17.2151 18.6631 17.2835V17.2806C18.6558 17.2806 18.5581 17.3637 17.5038 18.6412C17.4432 18.7226 17.3599 18.784 17.2643 18.8178C17.1687 18.8515 17.0653 18.8561 16.9671 18.8308C16.8721 18.8054 16.779 18.7733 16.6886 18.7346C16.5077 18.6587 16.445 18.6296 16.3211 18.5756L16.3138 18.5727C15.4795 18.2084 14.707 17.7164 14.0242 17.1144C13.8404 16.9539 13.6698 16.7789 13.4948 16.6098C12.9211 16.0603 12.4211 15.4388 12.0073 14.7606L11.9213 14.6221C11.8595 14.529 11.8095 14.4286 11.7725 14.3231C11.7171 14.1087 11.8615 13.9367 11.8615 13.9367C11.8615 13.9367 12.2158 13.5487 12.3806 13.3387C12.5178 13.1642 12.6459 12.9826 12.7642 12.7948C12.9363 12.5177 12.9902 12.2333 12.8998 12.0131C12.4915 11.0156 12.0686 10.0225 11.634 9.03666C11.5479 8.84124 11.2927 8.70124 11.0608 8.67353C10.9821 8.66478 10.9033 8.65603 10.8246 8.6502C10.6287 8.64047 10.4325 8.64388 10.2369 8.65749Z" fill="#151515"/>
</svg>
